<?xml version="1.0" encoding="utf-8"?>
<svg xmlns="http://www.w3.org/2000/svg" xmlns:xlink="http://www.w3.org/1999/xlink" width="600" height="400" viewBox="0 0 2400 1600">
<defs>
  <clipPath id="clip680">
    <rect x="0" y="0" width="2400" height="1600"/>
  </clipPath>
</defs>
<path clip-path="url(#clip680)" d="M0 1600 L2400 1600 L2400 0 L0 0  Z" fill="#ffffff" fill-rule="evenodd" fill-opacity="1"/>
<defs>
  <clipPath id="clip681">
    <rect x="480" y="0" width="1681" height="1600"/>
  </clipPath>
</defs>
<path clip-path="url(#clip680)" d="M219.542 1423.18 L2352.76 1423.18 L2352.76 123.472 L219.542 123.472  Z" fill="#ffffff" fill-rule="evenodd" fill-opacity="1"/>
<defs>
  <clipPath id="clip682">
    <rect x="219" y="123" width="2134" height="1301"/>
  </clipPath>
</defs>
<polyline clip-path="url(#clip682)" style="stroke:#000000; stroke-linecap:round; stroke-linejoin:round; stroke-width:2; stroke-opacity:0.1; fill:none" points="219.542,1423.18 219.542,123.472 "/>
<polyline clip-path="url(#clip682)" style="stroke:#000000; stroke-linecap:round; stroke-linejoin:round; stroke-width:2; stroke-opacity:0.1; fill:none" points="930.613,1423.18 930.613,123.472 "/>
<polyline clip-path="url(#clip682)" style="stroke:#000000; stroke-linecap:round; stroke-linejoin:round; stroke-width:2; stroke-opacity:0.1; fill:none" points="1641.68,1423.18 1641.68,123.472 "/>
<polyline clip-path="url(#clip682)" style="stroke:#000000; stroke-linecap:round; stroke-linejoin:round; stroke-width:2; stroke-opacity:0.1; fill:none" points="2352.76,1423.18 2352.76,123.472 "/>
<polyline clip-path="url(#clip680)" style="stroke:#000000; stroke-linecap:round; stroke-linejoin:round; stroke-width:4; stroke-opacity:1; fill:none" points="219.542,1423.18 2352.76,1423.18 "/>
<polyline clip-path="url(#clip680)" style="stroke:#000000; stroke-linecap:round; stroke-linejoin:round; stroke-width:4; stroke-opacity:1; fill:none" points="219.542,1423.18 219.542,1404.28 "/>
<polyline clip-path="url(#clip680)" style="stroke:#000000; stroke-linecap:round; stroke-linejoin:round; stroke-width:4; stroke-opacity:1; fill:none" points="930.613,1423.18 930.613,1404.28 "/>
<polyline clip-path="url(#clip680)" style="stroke:#000000; stroke-linecap:round; stroke-linejoin:round; stroke-width:4; stroke-opacity:1; fill:none" points="1641.68,1423.18 1641.68,1404.28 "/>
<polyline clip-path="url(#clip680)" style="stroke:#000000; stroke-linecap:round; stroke-linejoin:round; stroke-width:4; stroke-opacity:1; fill:none" points="2352.76,1423.18 2352.76,1404.28 "/>
<path clip-path="url(#clip680)" d="M219.542 1454.1 Q215.931 1454.1 214.102 1457.66 Q212.297 1461.2 212.297 1468.33 Q212.297 1475.44 214.102 1479.01 Q215.931 1482.55 219.542 1482.55 Q223.176 1482.55 224.982 1479.01 Q226.811 1475.44 226.811 1468.33 Q226.811 1461.2 224.982 1457.66 Q223.176 1454.1 219.542 1454.1 M219.542 1450.39 Q225.352 1450.39 228.408 1455 Q231.487 1459.58 231.487 1468.33 Q231.487 1477.06 228.408 1481.67 Q225.352 1486.25 219.542 1486.25 Q213.732 1486.25 210.653 1481.67 Q207.598 1477.06 207.598 1468.33 Q207.598 1459.58 210.653 1455 Q213.732 1450.39 219.542 1450.39 Z" fill="#000000" fill-rule="nonzero" fill-opacity="1" /><path clip-path="url(#clip680)" d="M905.301 1481.64 L912.94 1481.64 L912.94 1455.28 L904.63 1456.95 L904.63 1452.69 L912.894 1451.02 L917.57 1451.02 L917.57 1481.64 L925.208 1481.64 L925.208 1485.58 L905.301 1485.58 L905.301 1481.64 Z" fill="#000000" fill-rule="nonzero" fill-opacity="1" /><path clip-path="url(#clip680)" d="M944.653 1454.1 Q941.042 1454.1 939.213 1457.66 Q937.407 1461.2 937.407 1468.33 Q937.407 1475.44 939.213 1479.01 Q941.042 1482.55 944.653 1482.55 Q948.287 1482.55 950.092 1479.01 Q951.921 1475.44 951.921 1468.33 Q951.921 1461.2 950.092 1457.66 Q948.287 1454.1 944.653 1454.1 M944.653 1450.39 Q950.463 1450.39 953.518 1455 Q956.597 1459.58 956.597 1468.33 Q956.597 1477.06 953.518 1481.67 Q950.463 1486.25 944.653 1486.25 Q938.843 1486.25 935.764 1481.67 Q932.708 1477.06 932.708 1468.33 Q932.708 1459.58 935.764 1455 Q938.843 1450.39 944.653 1450.39 Z" fill="#000000" fill-rule="nonzero" fill-opacity="1" /><path clip-path="url(#clip680)" d="M1620.46 1481.64 L1636.78 1481.64 L1636.78 1485.58 L1614.83 1485.58 L1614.83 1481.64 Q1617.49 1478.89 1622.08 1474.26 Q1626.68 1469.61 1627.87 1468.27 Q1630.11 1465.74 1630.99 1464.01 Q1631.89 1462.25 1631.89 1460.56 Q1631.89 1457.8 1629.95 1456.07 Q1628.03 1454.33 1624.93 1454.33 Q1622.73 1454.33 1620.27 1455.09 Q1617.84 1455.86 1615.06 1457.41 L1615.06 1452.69 Q1617.89 1451.55 1620.34 1450.97 Q1622.8 1450.39 1624.83 1450.39 Q1630.2 1450.39 1633.4 1453.08 Q1636.59 1455.77 1636.59 1460.26 Q1636.59 1462.39 1635.78 1464.31 Q1634.99 1466.2 1632.89 1468.8 Q1632.31 1469.47 1629.21 1472.69 Q1626.11 1475.88 1620.46 1481.64 Z" fill="#000000" fill-rule="nonzero" fill-opacity="1" /><path clip-path="url(#clip680)" d="M1656.59 1454.1 Q1652.98 1454.1 1651.15 1457.66 Q1649.35 1461.2 1649.35 1468.33 Q1649.35 1475.44 1651.15 1479.01 Q1652.98 1482.55 1656.59 1482.55 Q1660.23 1482.55 1662.03 1479.01 Q1663.86 1475.44 1663.86 1468.33 Q1663.86 1461.2 1662.03 1457.66 Q1660.23 1454.1 1656.59 1454.1 M1656.59 1450.39 Q1662.4 1450.39 1665.46 1455 Q1668.54 1459.58 1668.54 1468.33 Q1668.54 1477.06 1665.46 1481.67 Q1662.4 1486.25 1656.59 1486.25 Q1650.78 1486.25 1647.7 1481.67 Q1644.65 1477.06 1644.65 1468.33 Q1644.65 1459.58 1647.7 1455 Q1650.78 1450.39 1656.59 1450.39 Z" fill="#000000" fill-rule="nonzero" fill-opacity="1" /><path clip-path="url(#clip680)" d="M2341.6 1466.95 Q2344.96 1467.66 2346.83 1469.93 Q2348.73 1472.2 2348.73 1475.53 Q2348.73 1480.65 2345.21 1483.45 Q2341.69 1486.25 2335.21 1486.25 Q2333.03 1486.25 2330.72 1485.81 Q2328.43 1485.39 2325.97 1484.54 L2325.97 1480.02 Q2327.92 1481.16 2330.23 1481.74 Q2332.55 1482.32 2335.07 1482.32 Q2339.47 1482.32 2341.76 1480.58 Q2344.08 1478.84 2344.08 1475.53 Q2344.08 1472.48 2341.92 1470.77 Q2339.79 1469.03 2335.97 1469.03 L2331.95 1469.03 L2331.95 1465.19 L2336.16 1465.19 Q2339.61 1465.19 2341.44 1463.82 Q2343.27 1462.43 2343.27 1459.84 Q2343.27 1457.18 2341.37 1455.77 Q2339.49 1454.33 2335.97 1454.33 Q2334.05 1454.33 2331.85 1454.75 Q2329.65 1455.16 2327.02 1456.04 L2327.02 1451.88 Q2329.68 1451.14 2331.99 1450.77 Q2334.33 1450.39 2336.39 1450.39 Q2341.71 1450.39 2344.82 1452.83 Q2347.92 1455.23 2347.92 1459.35 Q2347.92 1462.22 2346.27 1464.21 Q2344.63 1466.18 2341.6 1466.95 Z" fill="#000000" fill-rule="nonzero" fill-opacity="1" /><path clip-path="url(#clip680)" d="M2367.59 1454.1 Q2363.98 1454.1 2362.15 1457.66 Q2360.35 1461.2 2360.35 1468.33 Q2360.35 1475.44 2362.15 1479.01 Q2363.98 1482.55 2367.59 1482.55 Q2371.23 1482.55 2373.03 1479.01 Q2374.86 1475.44 2374.86 1468.33 Q2374.86 1461.2 2373.03 1457.66 Q2371.23 1454.1 2367.59 1454.1 M2367.59 1450.39 Q2373.4 1450.39 2376.46 1455 Q2379.54 1459.58 2379.54 1468.33 Q2379.54 1477.06 2376.46 1481.67 Q2373.4 1486.25 2367.59 1486.25 Q2361.78 1486.25 2358.7 1481.67 Q2355.65 1477.06 2355.65 1468.33 Q2355.65 1459.58 2358.7 1455 Q2361.78 1450.39 2367.59 1450.39 Z" fill="#000000" fill-rule="nonzero" fill-opacity="1" /><path clip-path="url(#clip680)" d="M1285.21 1522.27 L1285.21 1532.4 L1297.27 1532.4 L1297.27 1536.95 L1285.21 1536.95 L1285.21 1556.3 Q1285.21 1560.66 1286.39 1561.9 Q1287.6 1563.14 1291.26 1563.14 L1297.27 1563.14 L1297.27 1568.04 L1291.26 1568.04 Q1284.48 1568.04 1281.9 1565.53 Q1279.32 1562.98 1279.32 1556.3 L1279.32 1536.95 L1275.02 1536.95 L1275.02 1532.4 L1279.32 1532.4 L1279.32 1522.27 L1285.21 1522.27 Z" fill="#000000" fill-rule="nonzero" fill-opacity="1" /><polyline clip-path="url(#clip682)" style="stroke:#000000; stroke-linecap:round; stroke-linejoin:round; stroke-width:2; stroke-opacity:0.1; fill:none" points="219.542,1386.4 2352.76,1386.4 "/>
<polyline clip-path="url(#clip682)" style="stroke:#000000; stroke-linecap:round; stroke-linejoin:round; stroke-width:2; stroke-opacity:0.1; fill:none" points="219.542,1131.71 2352.76,1131.71 "/>
<polyline clip-path="url(#clip682)" style="stroke:#000000; stroke-linecap:round; stroke-linejoin:round; stroke-width:2; stroke-opacity:0.1; fill:none" points="219.542,877.03 2352.76,877.03 "/>
<polyline clip-path="url(#clip682)" style="stroke:#000000; stroke-linecap:round; stroke-linejoin:round; stroke-width:2; stroke-opacity:0.1; fill:none" points="219.542,622.348 2352.76,622.348 "/>
<polyline clip-path="url(#clip682)" style="stroke:#000000; stroke-linecap:round; stroke-linejoin:round; stroke-width:2; stroke-opacity:0.1; fill:none" points="219.542,367.665 2352.76,367.665 "/>
<polyline clip-path="url(#clip680)" style="stroke:#000000; stroke-linecap:round; stroke-linejoin:round; stroke-width:4; stroke-opacity:1; fill:none" points="219.542,1423.18 219.542,123.472 "/>
<polyline clip-path="url(#clip680)" style="stroke:#000000; stroke-linecap:round; stroke-linejoin:round; stroke-width:4; stroke-opacity:1; fill:none" points="219.542,1386.4 238.44,1386.4 "/>
<polyline clip-path="url(#clip680)" style="stroke:#000000; stroke-linecap:round; stroke-linejoin:round; stroke-width:4; stroke-opacity:1; fill:none" points="219.542,1131.71 238.44,1131.71 "/>
<polyline clip-path="url(#clip680)" style="stroke:#000000; stroke-linecap:round; stroke-linejoin:round; stroke-width:4; stroke-opacity:1; fill:none" points="219.542,877.03 238.44,877.03 "/>
<polyline clip-path="url(#clip680)" style="stroke:#000000; stroke-linecap:round; stroke-linejoin:round; stroke-width:4; stroke-opacity:1; fill:none" points="219.542,622.348 238.44,622.348 "/>
<polyline clip-path="url(#clip680)" style="stroke:#000000; stroke-linecap:round; stroke-linejoin:round; stroke-width:4; stroke-opacity:1; fill:none" points="219.542,367.665 238.44,367.665 "/>
<path clip-path="url(#clip680)" d="M126.367 1372.19 Q122.755 1372.19 120.927 1375.76 Q119.121 1379.3 119.121 1386.43 Q119.121 1393.54 120.927 1397.1 Q122.755 1400.64 126.367 1400.64 Q130.001 1400.64 131.806 1397.1 Q133.635 1393.54 133.635 1386.43 Q133.635 1379.3 131.806 1375.76 Q130.001 1372.19 126.367 1372.19 M126.367 1368.49 Q132.177 1368.49 135.232 1373.1 Q138.311 1377.68 138.311 1386.43 Q138.311 1395.16 135.232 1399.76 Q132.177 1404.35 126.367 1404.35 Q120.556 1404.35 117.478 1399.76 Q114.422 1395.16 114.422 1386.43 Q114.422 1377.68 117.478 1373.1 Q120.556 1368.49 126.367 1368.49 Z" fill="#000000" fill-rule="nonzero" fill-opacity="1" /><path clip-path="url(#clip680)" d="M146.529 1397.8 L151.413 1397.8 L151.413 1403.68 L146.529 1403.68 L146.529 1397.8 Z" fill="#000000" fill-rule="nonzero" fill-opacity="1" /><path clip-path="url(#clip680)" d="M171.598 1372.19 Q167.987 1372.19 166.158 1375.76 Q164.352 1379.3 164.352 1386.43 Q164.352 1393.54 166.158 1397.1 Q167.987 1400.64 171.598 1400.64 Q175.232 1400.64 177.038 1397.1 Q178.866 1393.54 178.866 1386.43 Q178.866 1379.3 177.038 1375.76 Q175.232 1372.19 171.598 1372.19 M171.598 1368.49 Q177.408 1368.49 180.464 1373.1 Q183.542 1377.68 183.542 1386.43 Q183.542 1395.16 180.464 1399.76 Q177.408 1404.35 171.598 1404.35 Q165.788 1404.35 162.709 1399.76 Q159.653 1395.16 159.653 1386.43 Q159.653 1377.68 162.709 1373.1 Q165.788 1368.49 171.598 1368.49 Z" fill="#000000" fill-rule="nonzero" fill-opacity="1" /><path clip-path="url(#clip680)" d="M127.015 1117.51 Q123.404 1117.51 121.575 1121.08 Q119.769 1124.62 119.769 1131.75 Q119.769 1138.85 121.575 1142.42 Q123.404 1145.96 127.015 1145.96 Q130.649 1145.96 132.455 1142.42 Q134.283 1138.85 134.283 1131.75 Q134.283 1124.62 132.455 1121.08 Q130.649 1117.51 127.015 1117.51 M127.015 1113.81 Q132.825 1113.81 135.88 1118.41 Q138.959 1123 138.959 1131.75 Q138.959 1140.47 135.88 1145.08 Q132.825 1149.66 127.015 1149.66 Q121.205 1149.66 118.126 1145.08 Q115.07 1140.47 115.07 1131.75 Q115.07 1123 118.126 1118.41 Q121.205 1113.81 127.015 1113.81 Z" fill="#000000" fill-rule="nonzero" fill-opacity="1" /><path clip-path="url(#clip680)" d="M147.177 1143.11 L152.061 1143.11 L152.061 1148.99 L147.177 1148.99 L147.177 1143.11 Z" fill="#000000" fill-rule="nonzero" fill-opacity="1" /><path clip-path="url(#clip680)" d="M176.413 1130.36 Q179.769 1131.08 181.644 1133.34 Q183.542 1135.61 183.542 1138.95 Q183.542 1144.06 180.024 1146.86 Q176.505 1149.66 170.024 1149.66 Q167.848 1149.66 165.533 1149.22 Q163.241 1148.81 160.788 1147.95 L160.788 1143.44 Q162.732 1144.57 165.047 1145.15 Q167.362 1145.73 169.885 1145.73 Q174.283 1145.73 176.575 1143.99 Q178.889 1142.26 178.889 1138.95 Q178.889 1135.89 176.737 1134.18 Q174.607 1132.44 170.788 1132.44 L166.76 1132.44 L166.76 1128.6 L170.973 1128.6 Q174.422 1128.6 176.251 1127.23 Q178.079 1125.84 178.079 1123.25 Q178.079 1120.59 176.181 1119.18 Q174.306 1117.74 170.788 1117.74 Q168.866 1117.74 166.667 1118.16 Q164.468 1118.58 161.829 1119.46 L161.829 1115.29 Q164.491 1114.55 166.806 1114.18 Q169.144 1113.81 171.204 1113.81 Q176.528 1113.81 179.63 1116.24 Q182.732 1118.65 182.732 1122.77 Q182.732 1125.64 181.089 1127.63 Q179.445 1129.59 176.413 1130.36 Z" fill="#000000" fill-rule="nonzero" fill-opacity="1" /><path clip-path="url(#clip680)" d="M126.205 862.829 Q122.593 862.829 120.765 866.394 Q118.959 869.935 118.959 877.065 Q118.959 884.171 120.765 887.736 Q122.593 891.278 126.205 891.278 Q129.839 891.278 131.644 887.736 Q133.473 884.171 133.473 877.065 Q133.473 869.935 131.644 866.394 Q129.839 862.829 126.205 862.829 M126.205 859.125 Q132.015 859.125 135.07 863.732 Q138.149 868.315 138.149 877.065 Q138.149 885.792 135.07 890.398 Q132.015 894.982 126.205 894.982 Q120.394 894.982 117.316 890.398 Q114.26 885.792 114.26 877.065 Q114.26 868.315 117.316 863.732 Q120.394 859.125 126.205 859.125 Z" fill="#000000" fill-rule="nonzero" fill-opacity="1" /><path clip-path="url(#clip680)" d="M146.366 888.431 L151.251 888.431 L151.251 894.31 L146.366 894.31 L146.366 888.431 Z" fill="#000000" fill-rule="nonzero" fill-opacity="1" /><path clip-path="url(#clip680)" d="M172.014 875.167 Q168.866 875.167 167.015 877.32 Q165.186 879.472 165.186 883.222 Q165.186 886.949 167.015 889.125 Q168.866 891.278 172.014 891.278 Q175.163 891.278 176.991 889.125 Q178.843 886.949 178.843 883.222 Q178.843 879.472 176.991 877.32 Q175.163 875.167 172.014 875.167 M181.297 860.514 L181.297 864.773 Q179.538 863.94 177.732 863.5 Q175.95 863.06 174.19 863.06 Q169.561 863.06 167.107 866.185 Q164.677 869.31 164.329 875.63 Q165.695 873.616 167.755 872.551 Q169.815 871.463 172.292 871.463 Q177.501 871.463 180.51 874.634 Q183.542 877.783 183.542 883.222 Q183.542 888.546 180.394 891.764 Q177.246 894.982 172.014 894.982 Q166.019 894.982 162.848 890.398 Q159.677 885.792 159.677 877.065 Q159.677 868.871 163.565 864.009 Q167.454 859.125 174.005 859.125 Q175.764 859.125 177.547 859.472 Q179.352 859.82 181.297 860.514 Z" fill="#000000" fill-rule="nonzero" fill-opacity="1" /><path clip-path="url(#clip680)" d="M126.552 608.146 Q122.941 608.146 121.112 611.711 Q119.306 615.253 119.306 622.382 Q119.306 629.489 121.112 633.053 Q122.941 636.595 126.552 636.595 Q130.186 636.595 131.992 633.053 Q133.82 629.489 133.82 622.382 Q133.82 615.253 131.992 611.711 Q130.186 608.146 126.552 608.146 M126.552 604.443 Q132.362 604.443 135.417 609.049 Q138.496 613.632 138.496 622.382 Q138.496 631.109 135.417 635.716 Q132.362 640.299 126.552 640.299 Q120.742 640.299 117.663 635.716 Q114.607 631.109 114.607 622.382 Q114.607 613.632 117.663 609.049 Q120.742 604.443 126.552 604.443 Z" fill="#000000" fill-rule="nonzero" fill-opacity="1" /><path clip-path="url(#clip680)" d="M146.714 633.748 L151.598 633.748 L151.598 639.628 L146.714 639.628 L146.714 633.748 Z" fill="#000000" fill-rule="nonzero" fill-opacity="1" /><path clip-path="url(#clip680)" d="M161.922 638.91 L161.922 634.651 Q163.681 635.484 165.487 635.924 Q167.292 636.364 169.028 636.364 Q173.658 636.364 176.089 633.262 Q178.542 630.137 178.889 623.794 Q177.547 625.785 175.487 626.85 Q173.427 627.915 170.927 627.915 Q165.741 627.915 162.709 624.79 Q159.7 621.642 159.7 616.202 Q159.7 610.878 162.848 607.66 Q165.996 604.443 171.227 604.443 Q177.223 604.443 180.371 609.049 Q183.542 613.632 183.542 622.382 Q183.542 630.553 179.653 635.438 Q175.788 640.299 169.237 640.299 Q167.477 640.299 165.672 639.952 Q163.866 639.604 161.922 638.91 M171.227 624.257 Q174.376 624.257 176.204 622.104 Q178.056 619.952 178.056 616.202 Q178.056 612.475 176.204 610.322 Q174.376 608.146 171.227 608.146 Q168.079 608.146 166.227 610.322 Q164.399 612.475 164.399 616.202 Q164.399 619.952 166.227 622.104 Q168.079 624.257 171.227 624.257 Z" fill="#000000" fill-rule="nonzero" fill-opacity="1" /><path clip-path="url(#clip680)" d="M118.774 381.01 L126.413 381.01 L126.413 354.644 L118.103 356.311 L118.103 352.051 L126.367 350.385 L131.042 350.385 L131.042 381.01 L138.681 381.01 L138.681 384.945 L118.774 384.945 L118.774 381.01 Z" fill="#000000" fill-rule="nonzero" fill-opacity="1" /><path clip-path="url(#clip680)" d="M148.126 379.065 L153.01 379.065 L153.01 384.945 L148.126 384.945 L148.126 379.065 Z" fill="#000000" fill-rule="nonzero" fill-opacity="1" /><path clip-path="url(#clip680)" d="M167.223 381.01 L183.542 381.01 L183.542 384.945 L161.598 384.945 L161.598 381.01 Q164.26 378.255 168.843 373.625 Q173.45 368.973 174.63 367.63 Q176.876 365.107 177.755 363.371 Q178.658 361.612 178.658 359.922 Q178.658 357.167 176.714 355.431 Q174.792 353.695 171.69 353.695 Q169.491 353.695 167.038 354.459 Q164.607 355.223 161.829 356.774 L161.829 352.051 Q164.653 350.917 167.107 350.339 Q169.561 349.76 171.598 349.76 Q176.968 349.76 180.163 352.445 Q183.357 355.13 183.357 359.621 Q183.357 361.75 182.547 363.672 Q181.76 365.57 179.653 368.162 Q179.075 368.834 175.973 372.051 Q172.871 375.246 167.223 381.01 Z" fill="#000000" fill-rule="nonzero" fill-opacity="1" /><path clip-path="url(#clip680)" d="M49.9359 834.58 L28.3562 834.58 L28.3562 828.724 L49.7131 828.724 Q54.7739 828.724 57.3202 826.75 Q59.8346 824.777 59.8346 820.83 Q59.8346 816.088 56.8109 813.35 Q53.7872 810.581 48.5673 810.581 L28.3562 810.581 L28.3562 804.725 L64.0042 804.725 L64.0042 810.581 L58.5296 810.581 Q61.7762 812.714 63.3676 815.547 Q64.9272 818.347 64.9272 822.071 Q64.9272 828.214 61.1078 831.397 Q57.2883 834.58 49.9359 834.58 M27.4968 819.843 L27.4968 819.843 Z" fill="#000000" fill-rule="nonzero" fill-opacity="1" /><path clip-path="url(#clip680)" d="M14.479 793.203 L14.479 779.708 L19.0304 779.708 L19.0304 787.346 L68.0464 787.346 L68.0464 779.708 L72.5979 779.708 L72.5979 793.203 L14.479 793.203 Z" fill="#000000" fill-rule="nonzero" fill-opacity="1" /><path clip-path="url(#clip680)" d="M58.5933 765.289 L58.5933 754.786 L22.3406 754.786 L24.6323 766.212 L18.7758 766.212 L16.4842 754.85 L16.4842 748.42 L58.5933 748.42 L58.5933 737.917 L64.0042 737.917 L64.0042 765.289 L58.5933 765.289 Z" fill="#000000" fill-rule="nonzero" fill-opacity="1" /><path clip-path="url(#clip680)" d="M14.479 712.072 L72.5979 712.072 L72.5979 725.567 L68.0464 725.567 L68.0464 717.96 L19.0304 717.96 L19.0304 725.567 L14.479 725.567 L14.479 712.072 Z" fill="#000000" fill-rule="nonzero" fill-opacity="1" /><path clip-path="url(#clip680)" d="M1042.73 49.9314 Q1042.73 41.7081 1039.33 37.0496 Q1035.97 32.3505 1030.05 32.3505 Q1024.14 32.3505 1020.73 37.0496 Q1017.37 41.7081 1017.37 49.9314 Q1017.37 58.1548 1020.73 62.8538 Q1024.14 67.5124 1030.05 67.5124 Q1035.97 67.5124 1039.33 62.8538 Q1042.73 58.1548 1042.73 49.9314 M1017.37 34.0924 Q1019.72 30.0415 1023.29 28.0971 Q1026.89 26.1121 1031.87 26.1121 Q1040.14 26.1121 1045.28 32.6746 Q1050.47 39.2371 1050.47 49.9314 Q1050.47 60.6258 1045.28 67.1883 Q1040.14 73.7508 1031.87 73.7508 Q1026.89 73.7508 1023.29 71.8063 Q1019.72 69.8214 1017.37 65.7705 L1017.37 72.576 L1009.88 72.576 L1009.88 9.54393 L1017.37 9.54393 L1017.37 34.0924 Z" fill="#000000" fill-rule="nonzero" fill-opacity="1" /><path clip-path="url(#clip680)" d="M1101.63 48.0275 L1101.63 51.6733 L1067.36 51.6733 Q1067.85 59.3701 1071.98 63.421 Q1076.15 67.4314 1083.56 67.4314 Q1087.86 67.4314 1091.87 66.3781 Q1095.92 65.3249 1099.89 63.2184 L1099.89 70.267 Q1095.88 71.9684 1091.67 72.8596 Q1087.45 73.7508 1083.12 73.7508 Q1072.26 73.7508 1065.9 67.4314 Q1059.58 61.1119 1059.58 50.3365 Q1059.58 39.1965 1065.58 32.6746 Q1071.61 26.1121 1081.82 26.1121 Q1090.98 26.1121 1096.28 32.0264 Q1101.63 37.9003 1101.63 48.0275 M1094.18 45.84 Q1094.1 39.7232 1090.73 36.0774 Q1087.41 32.4315 1081.9 32.4315 Q1075.66 32.4315 1071.9 35.9558 Q1068.17 39.4801 1067.6 45.8805 L1094.18 45.84 Z" fill="#000000" fill-rule="nonzero" fill-opacity="1" /><path clip-path="url(#clip680)" d="M1121.24 14.324 L1121.24 27.2059 L1136.59 27.2059 L1136.59 32.9987 L1121.24 32.9987 L1121.24 57.6282 Q1121.24 63.1779 1122.74 64.7578 Q1124.27 66.3376 1128.93 66.3376 L1136.59 66.3376 L1136.59 72.576 L1128.93 72.576 Q1120.31 72.576 1117.02 69.3758 Q1113.74 66.1351 1113.74 57.6282 L1113.74 32.9987 L1108.27 32.9987 L1108.27 27.2059 L1113.74 27.2059 L1113.74 14.324 L1121.24 14.324 Z" fill="#000000" fill-rule="nonzero" fill-opacity="1" /><path clip-path="url(#clip680)" d="M1153.77 14.324 L1153.77 27.2059 L1169.12 27.2059 L1169.12 32.9987 L1153.77 32.9987 L1153.77 57.6282 Q1153.77 63.1779 1155.26 64.7578 Q1156.8 66.3376 1161.46 66.3376 L1169.12 66.3376 L1169.12 72.576 L1161.46 72.576 Q1152.83 72.576 1149.55 69.3758 Q1146.27 66.1351 1146.27 57.6282 L1146.27 32.9987 L1140.8 32.9987 L1140.8 27.2059 L1146.27 27.2059 L1146.27 14.324 L1153.77 14.324 Z" fill="#000000" fill-rule="nonzero" fill-opacity="1" /><path clip-path="url(#clip680)" d="M1217.73 48.0275 L1217.73 51.6733 L1183.46 51.6733 Q1183.94 59.3701 1188.08 63.421 Q1192.25 67.4314 1199.66 67.4314 Q1203.96 67.4314 1207.97 66.3781 Q1212.02 65.3249 1215.99 63.2184 L1215.99 70.267 Q1211.98 71.9684 1207.76 72.8596 Q1203.55 73.7508 1199.22 73.7508 Q1188.36 73.7508 1182 67.4314 Q1175.68 61.1119 1175.68 50.3365 Q1175.68 39.1965 1181.68 32.6746 Q1187.71 26.1121 1197.92 26.1121 Q1207.08 26.1121 1212.38 32.0264 Q1217.73 37.9003 1217.73 48.0275 M1210.28 45.84 Q1210.19 39.7232 1206.83 36.0774 Q1203.51 32.4315 1198 32.4315 Q1191.76 32.4315 1188 35.9558 Q1184.27 39.4801 1183.7 45.8805 L1210.28 45.84 Z" fill="#000000" fill-rule="nonzero" fill-opacity="1" /><path clip-path="url(#clip680)" d="M1256.25 34.1734 Q1255 33.4443 1253.5 33.1202 Q1252.04 32.7556 1250.26 32.7556 Q1243.94 32.7556 1240.54 36.8875 Q1237.17 40.9789 1237.17 48.6757 L1237.17 72.576 L1229.68 72.576 L1229.68 27.2059 L1237.17 27.2059 L1237.17 34.2544 Q1239.52 30.1225 1243.29 28.1376 Q1247.06 26.1121 1252.45 26.1121 Q1253.22 26.1121 1254.15 26.2337 Q1255.08 26.3147 1256.21 26.5172 L1256.25 34.1734 Z" fill="#000000" fill-rule="nonzero" fill-opacity="1" /><path clip-path="url(#clip680)" d="M1323.09 28.9478 L1323.09 35.9153 Q1319.93 34.1734 1316.73 33.3227 Q1313.57 32.4315 1310.33 32.4315 Q1303.08 32.4315 1299.07 37.0496 Q1295.06 41.6271 1295.06 49.9314 Q1295.06 58.2358 1299.07 62.8538 Q1303.08 67.4314 1310.33 67.4314 Q1313.57 67.4314 1316.73 66.5807 Q1319.93 65.6895 1323.09 63.9476 L1323.09 70.8341 Q1319.97 72.2924 1316.61 73.0216 Q1313.29 73.7508 1309.52 73.7508 Q1299.27 73.7508 1293.24 67.3098 Q1287.2 60.8689 1287.2 49.9314 Q1287.2 38.832 1293.28 32.472 Q1299.4 26.1121 1310.01 26.1121 Q1313.45 26.1121 1316.73 26.8413 Q1320.01 27.5299 1323.09 28.9478 Z" fill="#000000" fill-rule="nonzero" fill-opacity="1" /><path clip-path="url(#clip680)" d="M1353.64 32.4315 Q1347.64 32.4315 1344.16 37.1306 Q1340.67 41.7891 1340.67 49.9314 Q1340.67 58.0738 1344.12 62.7728 Q1347.6 67.4314 1353.64 67.4314 Q1359.59 67.4314 1363.08 62.7323 Q1366.56 58.0333 1366.56 49.9314 Q1366.56 41.8701 1363.08 37.1711 Q1359.59 32.4315 1353.64 32.4315 M1353.64 26.1121 Q1363.36 26.1121 1368.91 32.4315 Q1374.46 38.7509 1374.46 49.9314 Q1374.46 61.0714 1368.91 67.4314 Q1363.36 73.7508 1353.64 73.7508 Q1343.87 73.7508 1338.32 67.4314 Q1332.82 61.0714 1332.82 49.9314 Q1332.82 38.7509 1338.32 32.4315 Q1343.87 26.1121 1353.64 26.1121 Z" fill="#000000" fill-rule="nonzero" fill-opacity="1" /><path clip-path="url(#clip680)" d="M1424.53 45.1919 L1424.53 72.576 L1417.07 72.576 L1417.07 45.4349 Q1417.07 38.994 1414.56 35.7938 Q1412.05 32.5936 1407.03 32.5936 Q1400.99 32.5936 1397.51 36.4419 Q1394.02 40.2903 1394.02 46.9338 L1394.02 72.576 L1386.53 72.576 L1386.53 27.2059 L1394.02 27.2059 L1394.02 34.2544 Q1396.7 30.163 1400.3 28.1376 Q1403.95 26.1121 1408.69 26.1121 Q1416.51 26.1121 1420.52 30.9732 Q1424.53 35.7938 1424.53 45.1919 Z" fill="#000000" fill-rule="nonzero" fill-opacity="1" /><path clip-path="url(#clip680)" d="M1446.77 14.324 L1446.77 27.2059 L1462.12 27.2059 L1462.12 32.9987 L1446.77 32.9987 L1446.77 57.6282 Q1446.77 63.1779 1448.27 64.7578 Q1449.81 66.3376 1454.46 66.3376 L1462.12 66.3376 L1462.12 72.576 L1454.46 72.576 Q1445.84 72.576 1442.55 69.3758 Q1439.27 66.1351 1439.27 57.6282 L1439.27 32.9987 L1433.8 32.9987 L1433.8 27.2059 L1439.27 27.2059 L1439.27 14.324 L1446.77 14.324 Z" fill="#000000" fill-rule="nonzero" fill-opacity="1" /><path clip-path="url(#clip680)" d="M1498.21 34.1734 Q1496.96 33.4443 1495.46 33.1202 Q1494 32.7556 1492.22 32.7556 Q1485.9 32.7556 1482.5 36.8875 Q1479.13 40.9789 1479.13 48.6757 L1479.13 72.576 L1471.64 72.576 L1471.64 27.2059 L1479.13 27.2059 L1479.13 34.2544 Q1481.48 30.1225 1485.25 28.1376 Q1489.02 26.1121 1494.41 26.1121 Q1495.18 26.1121 1496.11 26.2337 Q1497.04 26.3147 1498.17 26.5172 L1498.21 34.1734 Z" fill="#000000" fill-rule="nonzero" fill-opacity="1" /><path clip-path="url(#clip680)" d="M1521.79 32.4315 Q1515.79 32.4315 1512.31 37.1306 Q1508.83 41.7891 1508.83 49.9314 Q1508.83 58.0738 1512.27 62.7728 Q1515.75 67.4314 1521.79 67.4314 Q1527.74 67.4314 1531.23 62.7323 Q1534.71 58.0333 1534.71 49.9314 Q1534.71 41.8701 1531.23 37.1711 Q1527.74 32.4315 1521.79 32.4315 M1521.79 26.1121 Q1531.51 26.1121 1537.06 32.4315 Q1542.61 38.7509 1542.61 49.9314 Q1542.61 61.0714 1537.06 67.4314 Q1531.51 73.7508 1521.79 73.7508 Q1512.03 73.7508 1506.48 67.4314 Q1500.97 61.0714 1500.97 49.9314 Q1500.97 38.7509 1506.48 32.4315 Q1512.03 26.1121 1521.79 26.1121 Z" fill="#000000" fill-rule="nonzero" fill-opacity="1" /><path clip-path="url(#clip680)" d="M1554.97 9.54393 L1562.42 9.54393 L1562.42 72.576 L1554.97 72.576 L1554.97 9.54393 Z" fill="#000000" fill-rule="nonzero" fill-opacity="1" /><polyline clip-path="url(#clip682)" style="stroke:#009af9; stroke-linecap:round; stroke-linejoin:round; stroke-width:4; stroke-opacity:1; fill:none" points="219.542,1386.4 221.678,1386.4 223.813,1386.4 225.948,1386.4 228.084,1386.4 230.219,1386.4 232.354,1386.4 234.49,1386.4 236.625,1386.4 238.76,1386.4 240.896,1386.4 243.031,1386.4 245.166,1386.4 247.302,1386.4 249.437,1386.4 251.572,1386.4 253.708,1386.4 255.843,1386.4 257.978,1386.4 260.114,1386.4 262.249,1386.4 264.385,1386.4 266.52,1386.4 268.655,1386.4 270.791,1386.4 272.926,1386.4 275.061,1386.4 277.197,1386.4 279.332,1386.4 281.467,1386.4 283.603,1386.4 285.738,1386.4 287.873,1386.4 290.009,1386.4 292.144,1386.21 294.279,1385.29 296.415,1383.63 298.55,1381.24 300.685,1378.13 302.821,1374.32 304.956,1369.81 307.092,1364.62 309.227,1358.77 311.362,1352.27 313.498,1345.14 315.633,1337.4 317.768,1329.05 319.904,1320.12 322.039,1310.62 324.174,1300.57 326.31,1289.99 328.445,1278.89 330.58,1267.3 332.716,1255.22 334.851,1242.68 336.986,1229.7 339.122,1216.29 341.257,1202.47 343.392,1188.27 345.528,1173.69 347.663,1158.76 349.798,1143.5 351.934,1127.92 354.069,1112.04 356.205,1095.89 358.34,1079.48 360.475,1062.83 362.611,1045.96 364.746,1028.88 366.881,1011.62 369.017,994.187 371.152,976.608 373.287,958.898 375.423,941.075 377.558,923.156 379.693,905.16 381.829,887.102 383.964,869.001 386.099,850.873 388.235,832.734 390.37,814.602 392.505,796.491 394.641,778.419 396.776,760.4 398.912,742.45 401.047,724.583 403.182,706.815 405.318,689.161 407.453,671.634 409.588,654.248 411.724,637.017 413.859,619.954 415.994,603.072 418.13,586.383 420.265,569.898 422.4,553.631 424.536,537.591 426.671,521.79 428.806,506.238 430.942,490.946 433.077,475.923 435.212,461.178 437.348,446.722 439.483,432.561 441.618,418.706 443.754,405.164 445.889,391.942 448.025,379.048 450.16,366.488 452.295,354.268 454.431,342.395 456.566,330.873 458.701,319.709 460.837,308.906 462.972,298.468 465.107,288.4 467.243,278.704 469.378,269.384 471.513,260.442 473.649,251.882 475.784,243.704 477.919,235.911 480.055,228.503 482.19,221.483 484.325,214.85 486.461,208.605 488.596,202.747 490.732,197.276 492.867,192.192 495.002,187.492 497.138,183.177 499.273,179.243 501.408,175.689 503.544,172.511 505.679,169.708 507.814,167.275 509.95,165.21 512.085,163.508 514.22,162.166 516.356,161.179 518.491,160.544 520.626,160.256 522.762,160.31 524.897,160.7 527.032,161.421 529.168,162.468 531.303,163.835 533.439,165.516 535.574,167.505 537.709,169.795 539.845,172.381 541.98,175.256 544.115,178.412 546.251,181.842 548.386,185.54 550.521,189.498 552.657,193.708 554.792,198.163 556.927,202.854 559.063,207.776 561.198,212.919 563.333,218.277 565.469,223.84 567.604,229.601 569.739,235.551 571.875,241.682 574.01,247.987 576.145,254.456 578.281,261.082 580.416,267.856 582.552,274.771 584.687,281.818 586.822,288.989 588.958,296.275 591.093,303.669 593.228,311.163 595.364,318.747 597.499,326.414 599.634,334.156 601.77,341.964 603.905,349.831 606.04,357.751 608.176,365.715 610.311,373.715 612.446,381.742 614.582,389.789 616.717,397.848 618.852,405.912 620.988,413.973 623.123,422.024 625.259,430.057 627.394,438.066 629.529,446.043 631.665,453.983 633.8,461.879 635.935,469.724 638.071,477.512 640.206,485.237 642.341,492.893 644.477,500.475 646.612,507.977 648.747,515.393 650.883,522.719 653.018,529.949 655.153,537.078 657.289,544.102 659.424,551.015 661.559,557.814 663.695,564.494 665.83,571.05 667.965,577.48 670.101,583.779 672.236,589.942 674.372,595.967 676.507,601.85 678.642,607.587 680.778,613.176 682.913,618.614 685.048,623.898 687.184,629.025 689.319,633.993 691.454,638.801 693.59,643.445 695.725,647.925 697.86,652.239 699.996,656.386 702.131,660.363 704.266,664.172 706.402,667.81 708.537,671.277 710.672,674.573 712.808,677.697 714.943,680.65 717.079,683.431 719.214,686.041 721.349,688.48 723.485,690.747 725.62,692.843 727.755,694.769 729.891,696.526 732.026,698.115 734.161,699.536 736.297,700.791 738.432,701.881 740.567,702.808 742.703,703.572 744.838,704.176 746.973,704.622 749.109,704.911 751.244,705.045 753.379,705.027 755.515,704.858 757.65,704.542 759.786,704.081 761.921,703.477 764.056,702.734 766.192,701.853 768.327,700.839 770.462,699.694 772.598,698.422 774.733,697.025 776.868,695.506 779.004,693.869 781.139,692.115 783.274,690.25 785.41,688.275 787.545,686.195 789.68,684.014 791.816,681.733 793.951,679.358 796.086,676.891 798.222,674.336 800.357,671.697 802.492,668.977 804.628,666.18 806.763,663.309 808.899,660.368 811.034,657.361 813.169,654.291 815.305,651.162 817.44,647.978 819.575,644.742 821.711,641.459 823.846,638.132 825.981,634.764 828.117,631.359 830.252,627.919 832.387,624.449 834.523,620.953 836.658,617.433 838.793,613.895 840.929,610.34 843.064,606.774 845.199,603.198 847.335,599.618 849.47,596.036 851.606,592.455 853.741,588.878 855.876,585.309 858.012,581.751 860.147,578.207 862.282,574.68 864.418,571.172 866.553,567.686 868.688,564.226 870.824,560.793 872.959,557.391 875.094,554.022 877.23,550.688 879.365,547.392 881.5,544.136 883.636,540.922 885.771,537.754 887.906,534.632 890.042,531.558 892.177,528.536 894.312,525.566 896.448,522.651 898.583,519.792 900.719,516.99 902.854,514.249 904.989,511.569 907.125,508.952 909.26,506.399 911.395,503.913 913.531,501.493 915.666,499.142 917.801,496.861 919.937,494.65 922.072,492.51 924.207,490.443 926.343,488.45 928.478,486.53 930.613,484.685 932.749,482.915 934.884,481.221 937.019,479.602 939.155,478.06 941.29,476.594 943.426,475.204 945.561,473.891 947.696,472.655 949.832,471.494 951.967,470.41 954.102,469.401 956.238,468.467 958.373,467.609 960.508,466.825 962.644,466.117 964.779,465.483 966.914,464.923 969.05,464.435 971.185,464.021 973.32,463.678 975.456,463.406 977.591,463.205 979.726,463.073 981.862,463.009 983.997,463.014 986.133,463.085 988.268,463.221 990.403,463.423 992.539,463.688 994.674,464.015 996.809,464.403 998.945,464.851 1001.08,465.358 1003.22,465.922 1005.35,466.541 1007.49,467.215 1009.62,467.941 1011.76,468.719 1013.89,469.546 1016.03,470.422 1018.16,471.343 1020.3,472.311 1022.43,473.323 1024.57,474.376 1026.7,475.471 1028.84,476.605 1030.97,477.776 1033.11,478.983 1035.25,480.224 1037.38,481.498 1039.52,482.803 1041.65,484.138 1043.79,485.5 1045.92,486.888 1048.06,488.301 1050.19,489.737 1052.33,491.194 1054.46,492.671 1056.6,494.167 1058.73,495.678 1060.87,497.205 1063.01,498.745 1065.14,500.296 1067.28,501.858 1069.41,503.428 1071.55,505.006 1073.68,506.589 1075.82,508.177 1077.95,509.769 1080.09,511.362 1082.22,512.955 1084.36,514.547 1086.49,516.135 1088.63,517.719 1090.76,519.297 1092.9,520.868 1095.04,522.43 1097.17,523.982 1099.31,525.523 1101.44,527.051 1103.58,528.565 1105.71,530.064 1107.85,531.547 1109.98,533.014 1112.12,534.461 1114.25,535.89 1116.39,537.298 1118.52,538.685 1120.66,540.05 1122.79,541.392 1124.93,542.711 1127.07,544.004 1129.2,545.272 1131.34,546.515 1133.47,547.73 1135.61,548.918 1137.74,550.078 1139.88,551.21 1142.01,552.312 1144.15,553.385 1146.28,554.428 1148.42,555.441 1150.55,556.423 1152.69,557.373 1154.83,558.292 1156.96,559.178 1159.1,560.033 1161.23,560.854 1163.37,561.642 1165.5,562.397 1167.64,563.118 1169.77,563.806 1171.91,564.459 1174.04,565.079 1176.18,565.665 1178.31,566.216 1180.45,566.734 1182.58,567.217 1184.72,567.667 1186.86,568.083 1188.99,568.464 1191.13,568.813 1193.26,569.128 1195.4,569.409 1197.53,569.658 1199.67,569.874 1201.8,570.058 1203.94,570.21 1206.07,570.331 1208.21,570.42 1210.34,570.479 1212.48,570.507 1214.61,570.506 1216.75,570.475 1218.89,570.415 1221.02,570.327 1223.16,570.21 1225.29,570.066 1227.43,569.895 1229.56,569.697 1231.7,569.474 1233.83,569.225 1235.97,568.952 1238.1,568.654 1240.24,568.333 1242.37,567.989 1244.51,567.623 1246.65,567.235 1248.78,566.826 1250.92,566.397 1253.05,565.949 1255.19,565.481 1257.32,564.996 1259.46,564.493 1261.59,563.973 1263.73,563.437 1265.86,562.885 1268,562.319 1270.13,561.74 1272.27,561.147 1274.4,560.542 1276.54,559.926 1278.68,559.298 1280.81,558.661 1282.95,558.014 1285.08,557.357 1287.22,556.693 1289.35,556.022 1291.49,555.344 1293.62,554.66 1295.76,553.971 1297.89,553.277 1300.03,552.58 1302.16,551.88 1304.3,551.177 1306.43,550.472 1308.57,549.767 1310.71,549.061 1312.84,548.355 1314.98,547.65 1317.11,546.946 1319.25,546.244 1321.38,545.545 1323.52,544.849 1325.65,544.157 1327.79,543.469 1329.92,542.786 1332.06,542.108 1334.19,541.436 1336.33,540.771 1338.47,540.113 1340.6,539.462 1342.74,538.818 1344.87,538.183 1347.01,537.557 1349.14,536.939 1351.28,536.331 1353.41,535.733 1355.55,535.145 1357.68,534.568 1359.82,534.003 1361.95,533.449 1364.09,532.906 1366.22,532.376 1368.36,531.859 1370.5,531.354 1372.63,530.863 1374.77,530.385 1376.9,529.92 1379.04,529.469 1381.17,529.033 1383.31,528.61 1385.44,528.202 1387.58,527.809 1389.71,527.43 1391.85,527.065 1393.98,526.716 1396.12,526.382 1398.25,526.062 1400.39,525.758 1402.53,525.468 1404.66,525.194 1406.8,524.934 1408.93,524.69 1411.07,524.46 1413.2,524.245 1415.34,524.045 1417.47,523.86 1419.61,523.69 1421.74,523.534 1423.88,523.394 1426.01,523.267 1428.15,523.156 1430.29,523.059 1432.42,522.976 1434.56,522.908 1436.69,522.853 1438.83,522.812 1440.96,522.785 1443.1,522.772 1445.23,522.772 1447.37,522.785 1449.5,522.811 1451.64,522.85 1453.77,522.902 1455.91,522.965 1458.04,523.041 1460.18,523.129 1462.32,523.228 1464.45,523.339 1466.59,523.46 1468.72,523.592 1470.86,523.735 1472.99,523.888 1475.13,524.05 1477.26,524.222 1479.4,524.403 1481.53,524.593 1483.67,524.792 1485.8,525 1487.94,525.215 1490.07,525.438 1492.21,525.669 1494.35,525.906 1496.48,526.151 1498.62,526.402 1500.75,526.658 1502.89,526.921 1505.02,527.19 1507.16,527.463 1509.29,527.741 1511.43,528.024 1513.56,528.311 1515.7,528.602 1517.83,528.897 1519.97,529.195 1522.11,529.496 1524.24,529.799 1526.38,530.105 1528.51,530.413 1530.65,530.723 1532.78,531.034 1534.92,531.346 1537.05,531.659 1539.19,531.972 1541.32,532.286 1543.46,532.6 1545.59,532.914 1547.73,533.227 1549.86,533.54 1552,533.851 1554.14,534.161 1556.27,534.469 1558.41,534.776 1560.54,535.08 1562.68,535.381 1564.81,535.68 1566.95,535.976 1569.08,536.269 1571.22,536.559 1573.35,536.845 1575.49,537.127 1577.62,537.405 1579.76,537.679 1581.89,537.949 1584.03,538.214 1586.17,538.474 1588.3,538.73 1590.44,538.98 1592.57,539.226 1594.71,539.466 1596.84,539.7 1598.98,539.929 1601.11,540.153 1603.25,540.371 1605.38,540.582 1607.52,540.788 1609.65,540.988 1611.79,541.182 1613.93,541.37 1616.06,541.551 1618.2,541.726 1620.33,541.895 1622.47,542.057 1624.6,542.213 1626.74,542.362 1628.87,542.505 1631.01,542.641 1633.14,542.77 1635.28,542.893 1637.41,543.009 1639.55,543.118 1641.68,543.221 1643.82,543.317 1645.96,543.406 1648.09,543.489 1650.23,543.564 1652.36,543.634 1654.5,543.696 1656.63,543.752 1658.77,543.802 1660.9,543.845 1663.04,543.882 1665.17,543.912 1667.31,543.936 1669.44,543.954 1671.58,543.966 1673.71,543.972 1675.85,543.972 1677.99,543.966 1680.12,543.954 1682.26,543.937 1684.39,543.915 1686.53,543.886 1688.66,543.853 1690.8,543.814 1692.93,543.771 1695.07,543.722 1697.2,543.668 1699.34,543.61 1701.47,543.547 1703.61,543.479 1705.75,543.407 1707.88,543.331 1710.02,543.251 1712.15,543.166 1714.29,543.078 1716.42,542.986 1718.56,542.891 1720.69,542.792 1722.83,542.69 1724.96,542.584 1727.1,542.476 1729.23,542.364 1731.37,542.25 1733.5,542.134 1735.64,542.014 1737.78,541.893 1739.91,541.769 1742.05,541.644 1744.18,541.516 1746.32,541.387 1748.45,541.256 1750.59,541.124 1752.72,540.99 1754.86,540.855 1756.99,540.719 1759.13,540.583 1761.26,540.445 1763.4,540.307 1765.53,540.168 1767.67,540.029 1769.81,539.89 1771.94,539.751 1774.08,539.611 1776.21,539.472 1778.35,539.333 1780.48,539.195 1782.62,539.057 1784.75,538.92 1786.89,538.783 1789.02,538.648 1791.16,538.513 1793.29,538.379 1795.43,538.247 1797.57,538.115 1799.7,537.986 1801.84,537.857 1803.97,537.73 1806.11,537.605 1808.24,537.482 1810.38,537.36 1812.51,537.24 1814.65,537.122 1816.78,537.006 1818.92,536.893 1821.05,536.781 1823.19,536.672 1825.32,536.565 1827.46,536.46 1829.6,536.358 1831.73,536.258 1833.87,536.161 1836,536.066 1838.14,535.975 1840.27,535.885 1842.41,535.799 1844.54,535.715 1846.68,535.634 1848.81,535.556 1850.95,535.481 1853.08,535.409 1855.22,535.34 1857.35,535.274 1859.49,535.21 1861.63,535.15 1863.76,535.092 1865.9,535.038 1868.03,534.987 1870.17,534.938 1872.3,534.893 1874.44,534.851 1876.57,534.811 1878.71,534.775 1880.84,534.741 1882.98,534.71 1885.11,534.683 1887.25,534.658 1889.39,534.635 1891.52,534.616 1893.66,534.6 1895.79,534.586 1897.93,534.575 1900.06,534.567 1902.2,534.561 1904.33,534.559 1906.47,534.558 1908.6,534.561 1910.74,534.566 1912.87,534.573 1915.01,534.583 1917.14,534.596 1919.28,534.61 1921.42,534.627 1923.55,534.647 1925.69,534.668 1927.82,534.692 1929.96,534.718 1932.09,534.746 1934.23,534.776 1936.36,534.808 1938.5,534.842 1940.63,534.877 1942.77,534.915 1944.9,534.954 1947.04,534.995 1949.17,535.037 1951.31,535.081 1953.45,535.126 1955.58,535.173 1957.72,535.221 1959.85,535.271 1961.99,535.321 1964.12,535.373 1966.26,535.426 1968.39,535.48 1970.53,535.535 1972.66,535.591 1974.8,535.647 1976.93,535.705 1979.07,535.763 1981.21,535.821 1983.34,535.881 1985.48,535.94 1987.61,536.001 1989.75,536.061 1991.88,536.122 1994.02,536.184 1996.15,536.245 1998.29,536.307 2000.42,536.369 2002.56,536.43 2004.69,536.492 2006.83,536.554 2008.96,536.616 2011.1,536.677 2013.24,536.738 2015.37,536.799 2017.51,536.86 2019.64,536.92 2021.78,536.98 2023.91,537.04 2026.05,537.099 2028.18,537.158 2030.32,537.216 2032.45,537.273 2034.59,537.33 2036.72,537.386 2038.86,537.441 2040.99,537.495 2043.13,537.549 2045.27,537.602 2047.4,537.653 2049.54,537.704 2051.67,537.754 2053.81,537.803 2055.94,537.85 2058.08,537.897 2060.21,537.943 2062.35,537.987 2064.48,538.03 2066.62,538.072 2068.75,538.113 2070.89,538.153 2073.03,538.191 2075.16,538.228 2077.3,538.264 2079.43,538.298 2081.57,538.331 2083.7,538.363 2085.84,538.394 2087.97,538.423 2090.11,538.451 2092.24,538.477 2094.38,538.502 2096.51,538.526 2098.65,538.549 2100.78,538.57 2102.92,538.59 2105.06,538.609 2107.19,538.626 2109.33,538.642 2111.46,538.657 2113.6,538.671 2115.73,538.683 2117.87,538.694 2120,538.704 2122.14,538.712 2124.27,538.72 2126.41,538.726 2128.54,538.73 2130.68,538.734 2132.81,538.736 2134.95,538.738 2137.09,538.738 2139.22,538.737 2141.36,538.734 2143.49,538.731 2145.63,538.727 2147.76,538.721 2149.9,538.714 2152.03,538.707 2154.17,538.698 2156.3,538.689 2158.44,538.678 2160.57,538.667 2162.71,538.654 2164.85,538.641 2166.98,538.627 2169.12,538.612 2171.25,538.596 2173.39,538.579 2175.52,538.562 2177.66,538.544 2179.79,538.525 2181.93,538.505 2184.06,538.485 2186.2,538.464 2188.33,538.443 2190.47,538.421 2192.6,538.399 2194.74,538.376 2196.88,538.352 2199.01,538.328 2201.15,538.304 2203.28,538.279 2205.42,538.254 2207.55,538.229 2209.69,538.203 2211.82,538.177 2213.96,538.151 2216.09,538.124 2218.23,538.097 2220.36,538.07 2222.5,538.043 2224.63,538.016 2226.77,537.989 2228.91,537.961 2231.04,537.934 2233.18,537.907 2235.31,537.879 2237.45,537.852 2239.58,537.824 2241.72,537.797 2243.85,537.77 2245.99,537.743 2248.12,537.716 2250.26,537.689 2252.39,537.662 2254.53,537.636 2256.67,537.61 2258.8,537.584 2260.94,537.558 2263.07,537.533 2265.21,537.508 2267.34,537.483 2269.48,537.459 2271.61,537.435 2273.75,537.411 2275.88,537.388 2278.02,537.365 2280.15,537.342 2282.29,537.32 2284.42,537.299 2286.56,537.278 2288.7,537.257 2290.83,537.237 2292.97,537.218 2295.1,537.198 2297.24,537.18 2299.37,537.162 2301.51,537.144 2303.64,537.127 2305.78,537.111 2307.91,537.095 2310.05,537.08 2312.18,537.065 2314.32,537.051 2316.45,537.037 2318.59,537.024 2320.73,537.012 2322.86,537 2325,536.989 2327.13,536.978 2329.27,536.968 2331.4,536.958 2333.54,536.949 2335.67,536.941 2337.81,536.933 2339.94,536.926 2342.08,536.919 2344.21,536.913 2346.35,536.907 2348.49,536.903 2350.62,536.898 2352.76,536.894 "/>
<polyline clip-path="url(#clip682)" style="stroke:#e26f46; stroke-linecap:round; stroke-linejoin:round; stroke-width:4; stroke-opacity:1; fill:none" points="219.542,1386.4 223.014,1386.4 226.486,1386.4 229.958,1386.4 233.431,1386.4 249.483,1386.4 265.535,1386.4 273.561,1386.4 281.587,1386.4 283.594,1386.4 285.6,1386.4 286.604,1386.4 287.607,1386.4 288.61,1386.4 289.614,1386.4 290.617,1386.4 291.62,537.453 292.623,537.453 293.627,537.453 295.633,537.453 297.64,537.453 301.653,537.453 305.666,537.453 309.679,537.453 313.692,537.453 321.718,537.453 329.744,537.453 345.796,537.453 361.849,537.453 400.436,537.453 439.023,537.453 471.648,537.453 504.272,537.453 575.152,537.453 640.496,537.453 710.552,537.453 791.719,537.453 863.851,537.453 927.104,537.453 996.067,537.453 1065.44,537.453 1142.14,537.453 1215.12,537.453 1291,537.453 1354.87,537.453 1432.86,537.453 1504.3,537.453 1570.28,537.453 1637.11,537.453 1712.01,537.453 1779.89,537.453 1857.6,537.453 1929.55,537.453 2000.49,537.453 2069.37,537.453 2139.97,537.453 2217.33,537.453 2329.7,537.453 2352.76,537.453 "/>
<path clip-path="url(#clip680)" d="M1891.82 322.316 L2281.65 322.316 L2281.65 166.796 L1891.82 166.796  Z" fill="#ffffff" fill-rule="evenodd" fill-opacity="1"/>
<polyline clip-path="url(#clip680)" style="stroke:#000000; stroke-linecap:round; stroke-linejoin:round; stroke-width:4; stroke-opacity:1; fill:none" points="1891.82,322.316 2281.65,322.316 2281.65,166.796 1891.82,166.796 1891.82,322.316 "/>
<polyline clip-path="url(#clip680)" style="stroke:#009af9; stroke-linecap:round; stroke-linejoin:round; stroke-width:4; stroke-opacity:1; fill:none" points="1915.53,218.636 2057.74,218.636 "/>
<path clip-path="url(#clip680)" d="M2094.85 222.883 Q2089.68 222.883 2087.69 224.064 Q2085.7 225.244 2085.7 228.092 Q2085.7 230.36 2087.18 231.703 Q2088.69 233.022 2091.26 233.022 Q2094.8 233.022 2096.93 230.522 Q2099.08 227.999 2099.08 223.832 L2099.08 222.883 L2094.85 222.883 M2103.34 221.124 L2103.34 235.916 L2099.08 235.916 L2099.08 231.981 Q2097.62 234.342 2095.45 235.476 Q2093.27 236.587 2090.12 236.587 Q2086.14 236.587 2083.78 234.365 Q2081.44 232.119 2081.44 228.369 Q2081.44 223.994 2084.36 221.772 Q2087.3 219.55 2093.11 219.55 L2099.08 219.55 L2099.08 219.133 Q2099.08 216.194 2097.14 214.596 Q2095.22 212.976 2091.72 212.976 Q2089.5 212.976 2087.39 213.508 Q2085.29 214.041 2083.34 215.106 L2083.34 211.17 Q2085.68 210.268 2087.88 209.828 Q2090.08 209.365 2092.16 209.365 Q2097.79 209.365 2100.56 212.282 Q2103.34 215.198 2103.34 221.124 Z" fill="#000000" fill-rule="nonzero" fill-opacity="1" /><path clip-path="url(#clip680)" d="M2112.11 199.897 L2116.37 199.897 L2116.37 235.916 L2112.11 235.916 L2112.11 199.897 Z" fill="#000000" fill-rule="nonzero" fill-opacity="1" /><path clip-path="url(#clip680)" d="M2129.5 202.629 L2129.5 209.99 L2138.27 209.99 L2138.27 213.3 L2129.5 213.3 L2129.5 227.374 Q2129.5 230.545 2130.35 231.448 Q2131.23 232.351 2133.9 232.351 L2138.27 232.351 L2138.27 235.916 L2133.9 235.916 Q2128.97 235.916 2127.09 234.087 Q2125.22 232.235 2125.22 227.374 L2125.22 213.3 L2122.09 213.3 L2122.09 209.99 L2125.22 209.99 L2125.22 202.629 L2129.5 202.629 Z" fill="#000000" fill-rule="nonzero" fill-opacity="1" /><path clip-path="url(#clip680)" d="M2143.87 209.99 L2148.13 209.99 L2148.13 235.916 L2143.87 235.916 L2143.87 209.99 M2143.87 199.897 L2148.13 199.897 L2148.13 205.291 L2143.87 205.291 L2143.87 199.897 Z" fill="#000000" fill-rule="nonzero" fill-opacity="1" /><path clip-path="url(#clip680)" d="M2161.26 202.629 L2161.26 209.99 L2170.03 209.99 L2170.03 213.3 L2161.26 213.3 L2161.26 227.374 Q2161.26 230.545 2162.11 231.448 Q2162.99 232.351 2165.66 232.351 L2170.03 232.351 L2170.03 235.916 L2165.66 235.916 Q2160.72 235.916 2158.85 234.087 Q2156.97 232.235 2156.97 227.374 L2156.97 213.3 L2153.85 213.3 L2153.85 209.99 L2156.97 209.99 L2156.97 202.629 L2161.26 202.629 Z" fill="#000000" fill-rule="nonzero" fill-opacity="1" /><path clip-path="url(#clip680)" d="M2175.19 225.684 L2175.19 209.99 L2179.45 209.99 L2179.45 225.522 Q2179.45 229.203 2180.89 231.055 Q2182.32 232.883 2185.19 232.883 Q2188.64 232.883 2190.63 230.684 Q2192.65 228.485 2192.65 224.689 L2192.65 209.99 L2196.91 209.99 L2196.91 235.916 L2192.65 235.916 L2192.65 231.934 Q2191.09 234.295 2189.03 235.453 Q2187 236.587 2184.29 236.587 Q2179.82 236.587 2177.51 233.809 Q2175.19 231.031 2175.19 225.684 M2185.91 209.365 L2185.91 209.365 Z" fill="#000000" fill-rule="nonzero" fill-opacity="1" /><path clip-path="url(#clip680)" d="M2222.74 213.925 L2222.74 199.897 L2227 199.897 L2227 235.916 L2222.74 235.916 L2222.74 232.027 Q2221.4 234.342 2219.34 235.476 Q2217.3 236.587 2214.43 236.587 Q2209.73 236.587 2206.77 232.837 Q2203.83 229.087 2203.83 222.976 Q2203.83 216.865 2206.77 213.115 Q2209.73 209.365 2214.43 209.365 Q2217.3 209.365 2219.34 210.499 Q2221.4 211.61 2222.74 213.925 M2208.22 222.976 Q2208.22 227.675 2210.15 230.36 Q2212.09 233.022 2215.47 233.022 Q2218.85 233.022 2220.79 230.36 Q2222.74 227.675 2222.74 222.976 Q2222.74 218.277 2220.79 215.615 Q2218.85 212.93 2215.47 212.93 Q2212.09 212.93 2210.15 215.615 Q2208.22 218.277 2208.22 222.976 Z" fill="#000000" fill-rule="nonzero" fill-opacity="1" /><path clip-path="url(#clip680)" d="M2257.95 221.888 L2257.95 223.971 L2238.36 223.971 Q2238.64 228.369 2241 230.684 Q2243.39 232.976 2247.62 232.976 Q2250.08 232.976 2252.37 232.374 Q2254.68 231.772 2256.95 230.569 L2256.95 234.596 Q2254.66 235.568 2252.25 236.078 Q2249.84 236.587 2247.37 236.587 Q2241.16 236.587 2237.53 232.976 Q2233.92 229.365 2233.92 223.207 Q2233.92 216.842 2237.34 213.115 Q2240.79 209.365 2246.63 209.365 Q2251.86 209.365 2254.89 212.745 Q2257.95 216.101 2257.95 221.888 M2253.69 220.638 Q2253.64 217.143 2251.72 215.059 Q2249.82 212.976 2246.67 212.976 Q2243.11 212.976 2240.96 214.99 Q2238.83 217.004 2238.5 220.661 L2253.69 220.638 Z" fill="#000000" fill-rule="nonzero" fill-opacity="1" /><polyline clip-path="url(#clip680)" style="stroke:#e26f46; stroke-linecap:round; stroke-linejoin:round; stroke-width:4; stroke-opacity:1; fill:none" points="1915.53,270.476 2057.74,270.476 "/>
<path clip-path="url(#clip680)" d="M2088.85 254.469 L2088.85 261.83 L2097.62 261.83 L2097.62 265.14 L2088.85 265.14 L2088.85 279.214 Q2088.85 282.385 2089.71 283.288 Q2090.59 284.191 2093.25 284.191 L2097.62 284.191 L2097.62 287.756 L2093.25 287.756 Q2088.32 287.756 2086.44 285.927 Q2084.57 284.075 2084.57 279.214 L2084.57 265.14 L2081.44 265.14 L2081.44 261.83 L2084.57 261.83 L2084.57 254.469 L2088.85 254.469 Z" fill="#000000" fill-rule="nonzero" fill-opacity="1" /><path clip-path="url(#clip680)" d="M2115.01 274.723 Q2109.85 274.723 2107.85 275.904 Q2105.86 277.084 2105.86 279.932 Q2105.86 282.2 2107.35 283.543 Q2108.85 284.862 2111.42 284.862 Q2114.96 284.862 2117.09 282.362 Q2119.24 279.839 2119.24 275.672 L2119.24 274.723 L2115.01 274.723 M2123.5 272.964 L2123.5 287.756 L2119.24 287.756 L2119.24 283.821 Q2117.79 286.182 2115.61 287.316 Q2113.43 288.427 2110.29 288.427 Q2106.3 288.427 2103.94 286.205 Q2101.6 283.959 2101.6 280.209 Q2101.6 275.834 2104.52 273.612 Q2107.46 271.39 2113.27 271.39 L2119.24 271.39 L2119.24 270.973 Q2119.24 268.034 2117.3 266.436 Q2115.38 264.816 2111.88 264.816 Q2109.66 264.816 2107.55 265.348 Q2105.45 265.881 2103.5 266.946 L2103.5 263.01 Q2105.84 262.108 2108.04 261.668 Q2110.24 261.205 2112.32 261.205 Q2117.95 261.205 2120.72 264.122 Q2123.5 267.038 2123.5 272.964 Z" fill="#000000" fill-rule="nonzero" fill-opacity="1" /><path clip-path="url(#clip680)" d="M2147.3 265.811 Q2146.58 265.395 2145.72 265.21 Q2144.89 265.001 2143.87 265.001 Q2140.26 265.001 2138.32 267.362 Q2136.4 269.7 2136.4 274.098 L2136.4 287.756 L2132.11 287.756 L2132.11 261.83 L2136.4 261.83 L2136.4 265.858 Q2137.74 263.497 2139.89 262.362 Q2142.04 261.205 2145.12 261.205 Q2145.56 261.205 2146.1 261.274 Q2146.63 261.321 2147.28 261.436 L2147.3 265.811 Z" fill="#000000" fill-rule="nonzero" fill-opacity="1" /><path clip-path="url(#clip680)" d="M2167.99 274.492 Q2167.99 269.862 2166.07 267.316 Q2164.17 264.77 2160.72 264.77 Q2157.3 264.77 2155.38 267.316 Q2153.48 269.862 2153.48 274.492 Q2153.48 279.098 2155.38 281.645 Q2157.3 284.191 2160.72 284.191 Q2164.17 284.191 2166.07 281.645 Q2167.99 279.098 2167.99 274.492 M2172.25 284.538 Q2172.25 291.158 2169.31 294.376 Q2166.37 297.617 2160.31 297.617 Q2158.06 297.617 2156.07 297.27 Q2154.08 296.945 2152.21 296.251 L2152.21 292.108 Q2154.08 293.126 2155.91 293.612 Q2157.74 294.098 2159.64 294.098 Q2163.83 294.098 2165.91 291.899 Q2167.99 289.723 2167.99 285.302 L2167.99 283.196 Q2166.67 285.487 2164.61 286.621 Q2162.55 287.756 2159.68 287.756 Q2154.91 287.756 2152 284.121 Q2149.08 280.487 2149.08 274.492 Q2149.08 268.473 2152 264.839 Q2154.91 261.205 2159.68 261.205 Q2162.55 261.205 2164.61 262.339 Q2166.67 263.473 2167.99 265.765 L2167.99 261.83 L2172.25 261.83 L2172.25 284.538 Z" fill="#000000" fill-rule="nonzero" fill-opacity="1" /><path clip-path="url(#clip680)" d="M2203.2 273.728 L2203.2 275.811 L2183.62 275.811 Q2183.9 280.209 2186.26 282.524 Q2188.64 284.816 2192.88 284.816 Q2195.33 284.816 2197.62 284.214 Q2199.94 283.612 2202.21 282.409 L2202.21 286.436 Q2199.91 287.408 2197.51 287.918 Q2195.1 288.427 2192.62 288.427 Q2186.42 288.427 2182.78 284.816 Q2179.17 281.205 2179.17 275.047 Q2179.17 268.682 2182.6 264.955 Q2186.05 261.205 2191.88 261.205 Q2197.11 261.205 2200.15 264.585 Q2203.2 267.941 2203.2 273.728 M2198.94 272.478 Q2198.9 268.983 2196.97 266.899 Q2195.08 264.816 2191.93 264.816 Q2188.36 264.816 2186.21 266.83 Q2184.08 268.844 2183.76 272.501 L2198.94 272.478 Z" fill="#000000" fill-rule="nonzero" fill-opacity="1" /><path clip-path="url(#clip680)" d="M2214.4 254.469 L2214.4 261.83 L2223.18 261.83 L2223.18 265.14 L2214.4 265.14 L2214.4 279.214 Q2214.4 282.385 2215.26 283.288 Q2216.14 284.191 2218.8 284.191 L2223.18 284.191 L2223.18 287.756 L2218.8 287.756 Q2213.87 287.756 2212 285.927 Q2210.12 284.075 2210.12 279.214 L2210.12 265.14 L2207 265.14 L2207 261.83 L2210.12 261.83 L2210.12 254.469 L2214.4 254.469 Z" fill="#000000" fill-rule="nonzero" fill-opacity="1" /></svg>
